<!-- Generated by IcoMoon.io -->
<svg version="1.1" xmlns="http://www.w3.org/2000/svg" width="4096" height="4096" viewBox="0 0 4096 4096">
<title></title>
<g id="icomoon-ignore">
</g>
<path d="M1589.248 3571.712c-286.72 290.816-761.856 303.104-1056.768 16.384-294.912-290.816-307.2-765.952-12.288-1056.768 290.816-299.008 765.952-303.104 1060.864-16.384s299.008 757.76 8.192 1056.768zM3645.44 1916.928v0l86.016 315.392-348.16 143.36-167.936-278.528 12.288-4.096c-122.88 20.48-249.856 28.672-380.928 0l-163.84 278.528-348.16-143.36 81.92-315.392 4.096 4.096c-102.4-73.728-192.512-159.744-262.144-262.144v0l-315.392 81.92-143.36-348.16 274.432-163.84 8.192 8.192c-20.48-122.88-20.48-249.856 0-376.832l-278.528-163.84 143.36-348.16 315.392 77.824v16.384c45.056-61.44 90.112-114.688 151.552-167.936h-1814.528c-126.976 0-229.376 106.496-229.376 233.472v1515.52l212.992 155.648-4.096 4.096c106.496-69.632 217.088-118.784 339.968-143.36v0l45.056-315.392 368.64-4.096 49.152 311.296h-12.288c118.784 24.576 237.568 69.632 344.064 135.168l249.856-192.512 262.144 258.048-188.416 253.952-4.096-4.096c69.632 106.496 118.784 217.088 143.36 335.872v0l315.392 40.96 8.192 368.64-315.392 53.248v-12.288c-28.672 118.784-69.632 237.568-135.168 344.064l172.032 217.088h1474.56c126.976 0 229.376-98.304 229.376-233.472v-1822.72c-57.344 53.248-114.688 106.496-180.224 147.456zM3739.648 1335.296c-159.744 389.12-610.304 569.344-995.328 409.6-389.12-159.744-569.344-606.208-409.6-991.232 159.744-389.12 610.304-569.344 995.328-409.6 389.12 159.744 573.44 602.112 409.6 991.232z"></path>
</svg>
