<!-- Generated by IcoMoon.io -->
<svg version="1.1" xmlns="http://www.w3.org/2000/svg" width="4096" height="4096" viewBox="0 0 4096 4096">
<title></title>
<g id="icomoon-ignore">
</g>
<path d="M2048 768c-893.272 0-1667.528 520.168-2048 1280 380.472 759.832 1154.728 1280 2048 1280 893.248 0 1667.504-520.168 2048-1280-380.464-759.832-1154.752-1280-2048-1280zM3057.8 1446.816c240.648 153.496 444.568 359.096 597.736 601.184-153.168 242.088-357.096 447.688-597.744 601.184-302.376 192.872-651.56 294.816-1009.792 294.816-358.24 0-707.432-101.944-1009.808-294.816-240.632-153.488-444.552-359.088-597.728-601.184 153.168-242.096 357.096-447.696 597.736-601.184 15.672-10 31.504-19.688 47.44-29.2-39.84 109.312-61.64 227.288-61.64 350.384 0 565.528 458.464 1024 1024 1024 565.528 0 1024-458.472 1024-1024 0-123.096-21.808-241.072-61.632-350.392 15.912 9.512 31.752 19.208 47.432 29.208v0zM2048 1664c0 212.080-171.92 384-384 384s-384-171.92-384-384 171.92-384 384-384 384 171.928 384 384z"></path>
</svg>
